<?xml version="1.0" encoding="UTF-8" standalone="no"?>
<svg
        xmlns:dc="http://purl.org/dc/elements/1.1/"
        xmlns:cc="http://creativecommons.org/ns#"
        xmlns:rdf="http://www.w3.org/1999/02/22-rdf-syntax-ns#"
        xmlns:svg="http://www.w3.org/2000/svg"
        xmlns="http://www.w3.org/2000/svg"
        id="svg844"
        version="1.1"
        viewBox="0 0 46 46"
        height="46mm"
        width="46mm">
    <defs
            id="defs838" />
    <metadata
            id="metadata841">
        <rdf:RDF>
            <cc:Work
                    rdf:about="">
                <dc:format>image/svg+xml</dc:format>
                <dc:type
                        rdf:resource="http://purl.org/dc/dcmitype/StillImage" />
                <dc:title></dc:title>
            </cc:Work>
        </rdf:RDF>
    </metadata>
    <g
            transform="translate(-84.900751,-129.7136)"
            id="layer1">
        <path
                id="path5003"
                d="m 107.90075,130.0131 c -12.537094,2e-5 -22.700314,10.16334 -22.700434,22.70042 0,12.53715 10.16334,22.70056 22.700434,22.70059 12.53721,-1e-5 22.70056,-10.16343 22.70044,-22.70059 0,-12.53709 -10.16333,-22.70041 -22.70044,-22.70042 z m 0,1.37584 c 11.77735,-2e-5 21.32467,9.5473 21.32479,21.32458 0,11.77735 -9.54744,21.32477 -21.32479,21.32476 -11.777344,0 -21.324664,-9.54743 -21.324664,-21.32476 0,-11.77726 9.54744,-21.32459 21.324664,-21.32458 z m -1.67828,0.78147 c -3.68846,0.30719 -7.226504,1.60071 -10.243274,3.74504 0.9226,1.74592 2.75572,2.93636 4.867814,2.93642 3.03935,0 5.5033,-2.46387 5.50319,-5.50326 0,-0.40457 -0.0448,-0.79849 -0.12773,-1.1782 z m 3.35561,0.006 c -0.0821,0.37795 -0.12641,0.76998 -0.12641,1.1725 0.002,1.31321 0.47372,2.5804 1.32631,3.57427 0.067,0.0754 0.0837,0.1807 0.0305,0.27436 l -2.19836,3.89625 c 1.17266,0.1747 2.2397,0.77586 2.9967,1.6884 l 2.19358,-3.88804 c 0.0621,-0.1073 0.15842,-0.12988 0.24864,-0.11806 0.29916,0.0503 0.60216,0.0758 0.90573,0.0761 2.11616,0 3.95216,-1.1951 4.87295,-2.94649 -3.02023,-2.13977 -6.56041,-3.42789 -10.2496,-3.72927 z m -4.3138,5.5021 c -0.81925,0.83459 -1.85821,1.42009 -2.99634,1.68867 l 2.22022,3.93491 c 0.0584,0.10528 0.0228,0.19877 -0.012,0.25112 -0.45628,0.67811 -0.70156,1.4776 -0.703,2.2972 0.002,1.56328 0.88604,2.9868 2.2759,3.68409 0.0796,0.0415 0.13011,0.11586 0.13166,0.21073 v 12.14492 c 0.57289,-0.0304 1.14614,-0.0514 1.71974,-0.0472 0.57396,0.004 1.14709,0.0336 1.71974,0.0724 v -12.16283 c -10e-4,-0.11503 0.0671,-0.18425 0.12748,-0.21658 1.39213,-0.69643 2.27817,-2.12092 2.28008,-3.6855 0,-2.27943 -1.84794,-4.12729 -4.1273,-4.12725 -0.0662,0 -0.13226,0.002 -0.19833,0.006 -0.097,0.002 -0.17061,-0.0359 -0.22438,-0.12711 z m -11.865994,0.38065 c -2.62751,2.60657 -4.5058,5.87178 -5.43783,9.45361 0.6417,0.26211 1.34338,0.40765 2.07935,0.40765 0.76203,-0.002 1.51461,-0.16178 2.21043,-0.46899 0.1024,-0.044 0.20036,-0.0144 0.26846,0.0544 l 4.15848,4.35758 c 0.50849,-1.07096 1.39405,-1.91672 2.487247,-2.37532 l -4.160387,-4.35953 c -0.0818,-0.0968 -0.0745,-0.19069 -0.033,-0.27347 0.37503,-0.75714 0.57109,-1.59125 0.57193,-2.43774 0,-1.77452 -0.84075,-3.3518 -2.14471,-4.35817 z m 28.998374,0.005 c -1.30003,1.00659 -2.13791,2.5815 -2.13791,4.35291 1.4e-4,3.03925 2.46395,5.50306 5.50318,5.5031 0.74028,2e-5 1.44603,-0.14714 2.09071,-0.41222 -0.93883,-3.58024 -2.82332,-6.84209 -5.45598,-9.44379 z m -1.97148,7.47614 -4.20889,4.43348 c -0.0754,0.0775 -0.16967,0.086 -0.24732,0.0625 -0.38531,-0.11734 -0.78591,-0.17771 -1.18927,-0.179 -2.27935,5e-5 -4.12706,1.84784 -4.12717,4.12725 0.002,1.34653 0.65926,2.6045 1.75666,3.37446 0.0791,0.0518 0.10968,0.14308 0.10083,0.22185 l -0.49487,4.45427 c 1.14208,0.10609 2.28021,0.25241 3.41199,0.43868 l 0.48567,-4.37125 c 0.014,-0.12144 0.0964,-0.1785 0.1607,-0.20083 1.68497,-0.55565 2.83265,-2.13176 2.83361,-3.91718 0,-0.47891 -0.0845,-0.95382 -0.24766,-1.40333 -0.0308,-0.0827 -0.005,-0.18312 0.052,-0.2403 l 4.20651,-4.43066 c -1.03813,-0.53864 -1.9023,-1.36035 -2.49275,-2.3699 z m -19.40337,4.25778 c -1.828107,0.003 -3.430524,1.20595 -3.949524,2.94679 -0.025,0.0942 -0.10502,0.15443 -0.18806,0.16879 l -3.74281,0.66459 c 0.4196,0.84976 0.63836,1.78453 0.63968,2.7322 0,0.21841 -0.0127,0.43667 -0.0363,0.65381 l 3.73696,-0.66355 c 0.10598,-0.014 0.18507,0.0224 0.23836,0.0934 0.47707,0.63853 1.12881,1.12532 1.876607,1.40143 0.087,0.0362 0.1454,0.10318 0.15496,0.19604 l 0.506227,4.4682 c 1.13311,-0.17821 2.27207,-0.31649 3.41486,-0.4145 l -0.50288,-4.43851 c -0.0107,-0.11687 0.0421,-0.18476 0.10753,-0.22963 1.16358,-0.75908 1.87028,-2.05595 1.87183,-3.45184 0,-2.27942 -1.84793,-4.12725 -4.12741,-4.12725 z m -13.431734,1.00928 c -0.0772,0 -0.15389,0.003 -0.23023,0.006 -0.0616,0.6368 -0.0937,1.27612 -0.0958,1.91589 0.007,3.05301 0.69188,6.06637 2.00446,8.82283 2.21819,-0.7098 3.82466,-2.78764 3.82466,-5.24146 0,-3.03928 -2.46384,-5.50308 -5.50307,-5.50309 z m 40.621594,0 c -1.97875,0 -3.80005,1.06378 -4.77665,2.7754 -0.0293,0.0561 -0.11924,0.13418 -0.24539,0.11254 l -3.6893,-0.63876 c 0.0615,0.30552 0.0933,0.61631 0.0947,0.92795 -0.002,0.8668 -0.23789,1.71689 -0.68293,2.46075 l 3.69062,0.63929 c 0.1055,0.0201 0.17969,0.0938 0.19641,0.19259 0.36369,2.04277 1.83217,3.66047 3.73099,4.27192 1.31316,-2.75531 1.99884,-5.76761 2.00744,-8.81984 -0.006,-0.64004 -0.0417,-1.27943 -0.10717,-1.91619 -0.0726,-0.003 -0.14539,-0.006 -0.21876,-0.006 z m -20.31092,11.70959 c -5.5493,0.0203 -11.053434,0.99975 -16.269164,2.89502 3.90794,5.01633 9.910294,7.95088 16.269164,7.95403 6.35924,-0.009 12.35896,-2.95036 16.26189,-7.97094 -5.21442,-1.88874 -10.71593,-2.86235 -16.26189,-2.87811 z"
                style="color:#000000;font-style:normal;font-variant:normal;font-weight:normal;font-stretch:normal;font-size:medium;line-height:normal;font-family:sans-serif;font-variant-ligatures:normal;font-variant-position:normal;font-variant-caps:normal;font-variant-numeric:normal;font-variant-alternates:normal;font-feature-settings:normal;text-indent:0;text-align:start;text-decoration:none;text-decoration-line:none;text-decoration-style:solid;text-decoration-color:#000000;letter-spacing:normal;word-spacing:normal;text-transform:none;writing-mode:lr-tb;direction:ltr;text-orientation:mixed;dominant-baseline:auto;baseline-shift:baseline;text-anchor:start;white-space:normal;shape-padding:0;clip-rule:nonzero;display:inline;overflow:visible;visibility:visible;opacity:1;isolation:auto;mix-blend-mode:normal;color-interpolation:sRGB;color-interpolation-filters:linearRGB;solid-color:#000000;solid-opacity:1;vector-effect:none;fill:#00aa88;fill-opacity:1;fill-rule:nonzero;stroke:none;stroke-width:3.439466;stroke-linecap:butt;stroke-linejoin:miter;stroke-miterlimit:4;stroke-dasharray:none;stroke-dashoffset:0;stroke-opacity:1;color-rendering:auto;image-rendering:auto;shape-rendering:auto;text-rendering:auto;enable-background:accumulate" />
    </g>
</svg>
