<?xml version="1.0" encoding="UTF-8" standalone="no"?>
<!-- Created with Inkscape (http://www.inkscape.org/) -->

<svg
        width="171.17413mm"
        height="45.40514mm"
        viewBox="0 0 171.17413 45.40514"
        version="1.1"
        id="svg1"
        xml:space="preserve"
        sodipodi:docname="plurex_logo_and_title_light.svg"
        inkscape:version="1.3.1 (9b9bdc1480, 2023-11-25, custom)"
        xmlns:inkscape="http://www.inkscape.org/namespaces/inkscape"
        xmlns:sodipodi="http://sodipodi.sourceforge.net/DTD/sodipodi-0.dtd"
        xmlns="http://www.w3.org/2000/svg"
        xmlns:svg="http://www.w3.org/2000/svg"><sodipodi:namedview
     id="namedview1"
     pagecolor="#ffffff"
     bordercolor="#000000"
     borderopacity="0.25"
     inkscape:showpageshadow="2"
     inkscape:pageopacity="0.0"
     inkscape:pagecheckerboard="0"
     inkscape:deskcolor="#d1d1d1"
     inkscape:document-units="mm"
     inkscape:zoom="0.36278061"
     inkscape:cx="665.69158"
     inkscape:cy="350.07383"
     inkscape:window-width="1920"
     inkscape:window-height="1011"
     inkscape:window-x="1920"
     inkscape:window-y="32"
     inkscape:window-maximized="1"
     inkscape:current-layer="layer1" /><defs
        id="defs1" /><g
        id="layer1"><path
       id="path5003"
       d="M 22.700436,0 C 10.163339,2e-5 1.2e-4,10.16333 0,22.70042 0,35.23756 10.163339,45.40097 22.700436,45.40101 35.237646,45.40099 45.400996,35.23758 45.400876,22.70042 45.400876,10.16332 35.237546,1e-5 22.700436,0 Z m 0,1.37584 c 11.77735,-2e-5 21.32467,9.5473 21.32479,21.32458 0,11.77734 -9.54744,21.32477 -21.32479,21.32476 -11.777347,0 -21.3246661,-9.54743 -21.3246661,-21.32476 0,-11.77727 9.5474391,-21.32459 21.3246661,-21.32458 z m -1.67828,0.78147 c -3.688463,0.30719 -7.226507,1.60071 -10.243277,3.74504 0.9226,1.74591 2.75572,2.93636 4.867814,2.93642 3.039353,0 5.503303,-2.46388 5.503193,-5.50327 0,-0.40457 -0.0448,-0.79848 -0.12773,-1.17819 z m 3.35561,0.006 c -0.0821,0.37794 -0.12641,0.76997 -0.12641,1.1725 0.002,1.31321 0.47372,2.5804 1.32631,3.57426 0.067,0.0754 0.0837,0.1807 0.0305,0.27436 l -2.19836,3.89625 c 1.17266,0.17471 2.2397,0.77586 2.9967,1.68841 l 2.19358,-3.88804 c 0.0621,-0.1073 0.15842,-0.12989 0.24864,-0.11807 0.29916,0.0503 0.60216,0.0758 0.90573,0.0761 2.11616,0 3.95216,-1.1951 4.87295,-2.94648 -3.02023,-2.13977 -6.56041,-3.4279 -10.2496,-3.72927 z m -4.3138,5.5021 c -0.81925,0.83458 -1.85821,1.42008 -2.996343,1.68867 l 2.220223,3.93491 c 0.0584,0.10528 0.0228,0.19877 -0.012,0.25111 -0.45628,0.67811 -0.70156,1.4776 -0.703,2.2972 0.002,1.56328 0.88604,2.9868 2.2759,3.68409 0.0796,0.0415 0.13011,0.11586 0.13166,0.21074 v 12.14492 c 0.57289,-0.0304 1.14614,-0.0514 1.71974,-0.0472 0.57396,0.004 1.14709,0.0336 1.71974,0.0724 V 19.73941 c -0.001,-0.11502 0.0671,-0.18425 0.12748,-0.21658 1.39213,-0.69642 2.27817,-2.12092 2.28008,-3.68549 0,-2.27944 -1.84794,-4.1273 -4.1273,-4.12725 -0.0662,0 -0.13226,0.002 -0.19833,0.006 -0.097,0.002 -0.17061,-0.0359 -0.22438,-0.12712 z M 8.1979698,8.04606 c -2.62751,2.60657 -4.5058,5.87178 -5.43783,9.45361 0.6417,0.26211 1.34338,0.40764 2.07935,0.40764 0.76203,-0.002 1.51461,-0.16177 2.21043,-0.46898 0.1024,-0.044 0.20036,-0.0144 0.26846,0.0544 l 4.1584792,4.35759 c 0.50849,-1.07097 1.39405,-1.91672 2.487247,-2.37532 L 9.8037197,15.11547 c -0.0818,-0.0968 -0.0745,-0.1907 -0.033,-0.27347 0.3750293,-0.75714 0.5710893,-1.59125 0.5719293,-2.43774 0,-1.77453 -0.8407493,-3.35181 -2.1447092,-4.35817 z m 28.9983762,0.005 c -1.30003,1.00658 -2.13791,2.5815 -2.13791,4.35291 1.4e-4,3.03924 2.46395,5.50305 5.50318,5.50309 0.74028,3e-5 1.44603,-0.14714 2.09071,-0.41221 -0.93883,-3.58024 -2.82332,-6.8421 -5.45598,-9.44379 z m -1.97148,7.47614 -4.20889,4.43347 c -0.0754,0.0775 -0.16967,0.086 -0.24732,0.0625 -0.38531,-0.11733 -0.78591,-0.1777 -1.18927,-0.17899 -2.27935,5e-5 -4.12706,1.84784 -4.12717,4.12724 0.002,1.34653 0.65926,2.6045 1.75666,3.37446 0.0791,0.0518 0.10968,0.14309 0.10083,0.22186 l -0.49487,4.45426 c 1.14208,0.1061 2.28021,0.25241 3.41199,0.43868 l 0.48567,-4.37125 c 0.014,-0.12143 0.0964,-0.17849 0.1607,-0.20083 1.68497,-0.55564 2.83265,-2.13175 2.83361,-3.91718 0,-0.4789 -0.0845,-0.95381 -0.24766,-1.40332 -0.0308,-0.0827 -0.005,-0.18312 0.052,-0.24031 l 4.20651,-4.43065 c -1.03813,-0.53865 -1.9023,-1.36036 -2.49275,-2.3699 z m -19.403373,4.25778 c -1.828107,0.003 -3.430524,1.20595 -3.949524,2.94679 -0.025,0.0942 -0.10502,0.15442 -0.18806,0.16879 l -3.7428092,0.66459 c 0.4196001,0.84976 0.63836,1.78453 0.63968,2.7322 0,0.2184 -0.0127,0.43667 -0.0363,0.65381 L 12.281439,26.2876 c 0.10598,-0.014 0.18507,0.0224 0.23836,0.0934 0.47707,0.63854 1.12881,1.12533 1.876607,1.40144 0.087,0.0362 0.1454,0.10318 0.15496,0.19604 l 0.506227,4.4682 c 1.13311,-0.17821 2.27207,-0.3165 3.414863,-0.4145 l -0.50288,-4.43852 c -0.0107,-0.11687 0.0421,-0.18475 0.10753,-0.22962 1.16358,-0.75908 1.87028,-2.05595 1.87183,-3.45184 0,-2.27943 -1.84793,-4.12725 -4.127413,-4.12725 z M 2.3897598,20.79426 c -0.0772,0 -0.15389,0.003 -0.23023,0.006 -0.0616,0.63679 -0.0937,1.27611 -0.0958,1.91588 0.007,3.05301 0.69188,6.06637 2.00446,8.82284 2.21819,-0.7098 3.82466,-2.78765 3.82466,-5.24147 0,-3.03928 -2.46384,-5.50307 -5.50307,-5.50308 z m 40.6215962,0 c -1.97875,0 -3.80005,1.06378 -4.77665,2.77539 -0.0293,0.0561 -0.11924,0.13419 -0.24539,0.11254 l -3.6893,-0.63876 c 0.0615,0.30553 0.0933,0.61631 0.0947,0.92796 -0.002,0.86679 -0.23789,1.71688 -0.68293,2.46074 l 3.69062,0.63929 c 0.1055,0.0201 0.17969,0.0938 0.19641,0.19259 0.36369,2.04278 1.83217,3.66047 3.73099,4.27193 1.31316,-2.75532 1.99884,-5.76762 2.00744,-8.81984 -0.006,-0.64004 -0.0417,-1.27944 -0.10717,-1.91619 -0.0726,-0.003 -0.14539,-0.006 -0.21876,-0.006 z m -20.31092,11.70958 c -5.549303,0.0203 -11.053437,0.99976 -16.2691662,2.89503 3.9079392,5.01632 9.9102932,7.95087 16.2691662,7.95403 6.35924,-0.009 12.35896,-2.95036 16.26189,-7.97094 -5.21442,-1.88874 -10.71593,-2.86235 -16.26189,-2.87812 z"
       style="color:#000000;font-style:normal;font-variant:normal;font-weight:normal;font-stretch:normal;font-size:medium;line-height:normal;font-family:sans-serif;font-variant-ligatures:normal;font-variant-position:normal;font-variant-caps:normal;font-variant-numeric:normal;font-variant-alternates:normal;font-feature-settings:normal;text-indent:0;text-align:start;text-decoration:none;text-decoration-line:none;text-decoration-style:solid;text-decoration-color:#000000;letter-spacing:normal;word-spacing:normal;text-transform:none;writing-mode:lr-tb;direction:ltr;text-orientation:mixed;dominant-baseline:auto;baseline-shift:baseline;text-anchor:start;white-space:normal;shape-padding:0;clip-rule:nonzero;display:inline;overflow:visible;visibility:visible;isolation:auto;mix-blend-mode:normal;color-interpolation:sRGB;color-interpolation-filters:linearRGB;solid-color:#000000;solid-opacity:1;vector-effect:none;fill:#16c99d;fill-opacity:1;fill-rule:nonzero;stroke:none;stroke-width:3.43947;stroke-linecap:butt;stroke-linejoin:miter;stroke-miterlimit:4;stroke-dasharray:none;stroke-dashoffset:0;stroke-opacity:1;color-rendering:auto;image-rendering:auto;shape-rendering:auto;text-rendering:auto;enable-background:accumulate" /><g
        transform="translate(12.048677,-146.54148)"
        id="g1982"
        style="fill:#16c99d;fill-opacity:1"><path
         id="path4971"
         d="m 49.899373,156.09877 c -6.58155,0.001 -11.92308,5.32405 -11.94622,11.90553 0.002,0.10976 -10e-4,0.17186 -10e-4,0.28097 v 22.44617 c 0,0.001 0,0.003 0,0.004 a 1.1947597,1.1947597 0 0 0 -8.3e-4,0.0165 1.1947597,1.1947597 0 0 0 1.19476,1.19468 1.1947597,1.1947597 0 0 0 1.19475,-1.19468 1.1947597,1.1947597 0 0 0 0,-0.0126 c 0,-0.002 8.2e-4,-0.005 8.2e-4,-0.008 v 0 -22.44617 c 0,0 0,0 0,-8.2e-4 7e-5,-0.0798 8.2e-4,-0.15576 0,-0.23817 0,-5.27878 4.27917,-9.55809 9.55802,-9.55817 5.27878,0 9.55831,4.27939 9.55831,9.55817 0,5.27885 -4.27953,9.5581 -9.55831,9.55802 -1.9506,-0.001 -3.85398,-0.59908 -5.45484,-1.71345 l -0.27103,-0.20407 -8.2e-4,0.001 a 1.1947597,1.1947597 0 0 0 -0.72327,-0.24571 1.1947597,1.1947597 0 0 0 -1.1949,1.19475 1.1947597,1.1947597 0 0 0 0.53234,0.99366 c 2.05572,1.52984 4.54911,2.35889 7.11273,2.36317 3.16871,0 6.20765,-1.25874 8.44829,-3.49938 2.24064,-2.24057 3.49931,-5.27958 3.49931,-8.44829 0,-3.16865 -1.25882,-6.20765 -3.49931,-8.4483 -2.24065,-2.24075 -5.27959,-3.49941 -8.4483,-3.49941 z"
         style="opacity:1;fill:#16c99d;fill-opacity:1;stroke:none;stroke-width:2.38952;stroke-miterlimit:4;stroke-dasharray:none;stroke-opacity:1" /><path
        id="path4951"
        d="m 69.049153,156.08673 c -0.64039,7.7e-4 -1.16631,0.50629 -1.19236,1.14615 -0.002,0.0134 -0.004,0.0272 -0.004,0.0413 v 10.75488 c 0,0.006 10e-4,0.0115 10e-4,0.0173 h -10e-4 c -4e-5,6.59854 5.34914,11.94772 11.94768,11.94767 3.69088,-0.005 7.168455,-1.71495 9.425745,-4.62602 0.0851,-0.10272 0.135379,-0.21809 0.132429,-0.43136 v -6.89027 -6.04254 h -0.0021 c -0.031,-0.63626 -0.5557,-1.13632 -1.192721,-1.13665 -0.636709,7.7e-4 -1.160949,0.5007 -1.191919,1.13665 h -0.003 v 12.03346 c -0.009,0.26051 -0.0489,0.37408 -0.198249,0.53756 -1.801655,1.9267 -4.323825,3.02658 -6.970385,3.02954 -5.27875,-3e-5 -9.558,-4.27928 -9.55802,-9.55802 h -0.002 c 0,-0.006 0.001,-0.0113 0.001,-0.0173 v -10.71353 c 5.2e-4,-0.0114 7.9e-4,-0.0227 0.001,-0.0341 -1e-5,-0.65981 -0.53488,-1.19471 -1.19469,-1.19475 z"
        style="opacity:1;fill:#16c99d;fill-opacity:1;stroke:none;stroke-width:2.38952;stroke-miterlimit:4;stroke-dasharray:none;stroke-opacity:1" /><path
        id="path4959"
        d="m 100.96789,156.09877 c -3.713964,0.005 -7.212044,1.73648 -9.468045,4.68097 -0.0588,0.0797 -0.0871,0.15427 -0.0901,0.30762 v 6.95903 6.02868 h 0.004 c 0.0287,0.63809 0.554138,1.14077 1.192869,1.14114 0.638421,-7.9e-4 1.163421,-0.50336 1.19207,-1.14114 h 0.0011 v -0.0223 c 5.29e-4,-0.0104 7.94e-4,-0.0209 0.0011,-0.0313 -6e-5,-0.0147 -2.64e-4,-0.0295 -0.0011,-0.0442 v -12.0306 c 0.005,-0.1695 0.0333,-0.2314 0.117681,-0.3413 1.80656,-1.98081 4.3648,-3.11396 7.050985,-3.11701 3.12786,0.004 6.05574,1.53905 7.83905,4.10877 l 0.0266,-0.0266 c 0.21808,0.19321 0.49924,0.30007 0.7906,0.30048 0.65981,-1e-5 1.19471,-0.53487 1.19475,-1.19468 3e-5,-0.31084 -0.12108,-0.60946 -0.33763,-0.83246 -2.2534,-2.9822 -5.77324,-4.73933 -9.51332,-4.74506 z"
        style="opacity:1;fill:#16c99d;fill-opacity:1;stroke:none;stroke-width:2.38952;stroke-miterlimit:4;stroke-dasharray:none;stroke-opacity:1" /><path
        id="path4961"
        d="m 122.96314,156.09877 c -6.59842,8e-5 -11.94745,5.34918 -11.94745,11.9476 10e-4,6.57554 5.31518,11.91431 11.89065,11.94565 0.0238,0.002 0.0477,0.003 0.0716,0.004 0.65982,-4e-5 1.19469,-0.53494 1.19469,-1.19476 -4e-5,-0.65979 -0.5349,-1.19464 -1.19469,-1.19468 -0.003,-1e-5 -0.007,-1e-5 -0.01,0 v -0.002 h -0.005 c -5.27877,-7e-5 -9.558,-4.2794 -9.55795,-9.55817 3e-5,-5.27871 4.27924,-9.55795 9.55795,-9.55802 4.25937,0.003 7.98982,2.82197 9.17114,6.8903 0.0542,0.23315 0.0566,0.27829 -0.13931,0.27829 h -15.73475 -0.006 c -0.003,-1e-5 -0.007,-1e-5 -0.01,0 -0.65981,1e-5 -1.19471,0.53487 -1.19475,1.19468 10e-6,0.65984 0.53491,1.19474 1.19475,1.19475 0.004,2e-5 0.008,2e-5 0.0126,0 h 0.003 16.26109 0.23381 2.02219 c 0.1224,8.7e-4 0.13581,-0.0554 0.13296,-0.11454 -0.0615,-6.54574 -5.38686,-11.83307 -11.94713,-11.83303 z"
        style="opacity:1;fill:#16c99d;fill-opacity:1;stroke:none;stroke-width:2.38952;stroke-miterlimit:4;stroke-dasharray:none;stroke-opacity:1" /><path
        id="rect4965"
        d="m 135.79791,155.79807 c -0.65982,4e-5 -1.19468,0.53493 -1.19469,1.19475 2.6e-4,0.35974 0.16277,0.70018 0.44217,0.92678 l 10.03211,10.03212 c 0.0848,0.0912 0.045,0.15703 -7.9e-4,0.2053 l -9.90608,9.90586 c -0.33043,0.34817 -0.56742,0.62505 -0.56798,1.04944 4e-5,0.65987 0.53503,1.19476 1.19489,1.19468 0.2898,-5.3e-4 0.55781,-0.10792 0.78704,-0.29794 0.0372,-0.0299 0.0622,-0.0444 0.10473,-0.0855 l 10.12237,-10.12237 c 0.0498,-0.0546 0.0683,-0.0481 0.11147,-0.004 l 10.12635,10.1262 c 0.041,0.0348 0.0604,0.0546 0.093,0.0827 0.21779,0.19185 0.49797,0.29787 0.78821,0.29824 0.65981,-1e-5 1.19471,-0.53487 1.19475,-1.19468 -5.3e-4,-0.42223 -0.28276,-0.77977 -0.5544,-1.044 l -9.95251,-9.95255 c -0.0347,-0.0413 -0.0431,-0.0728 -0.005,-0.11361 l 10.09578,-10.09577 c 0.26006,-0.22645 0.4096,-0.55422 0.41017,-0.89906 8e-5,-0.6599 -0.53485,-1.19489 -1.19475,-1.1949 -0.31396,2.1e-4 -0.61522,0.124 -0.83863,0.34459 -0.0128,0.009 -0.0249,0.0182 -0.0363,0.0295 l -10.11948,10.11933 c -0.0318,0.0372 -0.0872,0.0377 -0.12217,-7.9e-4 l -10.11854,-10.11854 c -0.0144,-0.0144 -0.0303,-0.0257 -0.0469,-0.0356 -0.22387,-0.22411 -0.52758,-0.35015 -0.84435,-0.3504 z"
        style="opacity:1;fill:#16c99d;fill-opacity:1;stroke:none;stroke-width:7.33909;stroke-miterlimit:4;stroke-dasharray:none;stroke-opacity:1" /><path
        id="circle4991"
        d="m 64.624963,146.54148 c -0.53246,5.1e-4 -1.00032,0.35331 -1.14724,0.8651 -0.0277,0.085 -0.0475,0.23397 -0.0475,0.32958 v 31.06313 c 8e-5,0.65979 0.53497,1.19461 1.19476,1.19461 0.6599,7e-5 1.19489,-0.53486 1.19489,-1.19475 v -31.06299 c 0.006,-0.13201 -0.0413,-0.30313 -0.0471,-0.32958 -0.14697,-0.51199 -0.61514,-0.86485 -1.14781,-0.8651 z"
        style="opacity:1;fill:#16c99d;fill-opacity:1;stroke:none;stroke-width:0.416827;stroke-miterlimit:4;stroke-dasharray:none;stroke-opacity:1" /></g></g></svg>
